<?xml version="1.0" encoding="utf-8"?>
<!-- Generator: Adobe Illustrator 19.0.0, SVG Export Plug-In . SVG Version: 6.00 Build 0)  -->
<svg version="1.1" id="Layer_1" xmlns="http://www.w3.org/2000/svg" xmlns:xlink="http://www.w3.org/1999/xlink" x="0px" y="0px"
	 viewBox="355 -233.1 860.1 571.1" style="enable-background:new 355 -233.1 860.1 571.1;" xml:space="preserve">
<style type="text/css">
	.st0{fill:#F2F2F2;}
	.st1{fill:#E4E4E4;}
	.st2{fill:#F2BC25;}
	.st3{fill:#F0F0F0;}
	.st4{fill:#CCCCCC;}
	.st5{fill:#709FB0;}
	.st6{opacity:0.2;enable-background:new    ;}
	.st7{fill:#413C69;}
	.st8{fill:#CACACA;}
</style>
<path class="st0" d="M790.7-72.6c-7.7-12.7-16.8-26.2-31-30.4c-16.5-4.8-33.4,4.7-47.8,14.1C669-60.7,627.7-30.3,588.1,2.4l0,0.5
	c30.8-2.1,61.6-4.3,92.5-6.4c22.3-1.5,45.3-3.3,65-13.8c7.5-4,14.7-9.3,23.2-9.7c10.5-0.5,19.7,6.9,26.9,14.5
	c42.6,45.4,54.9,114.8,102.7,154.6C868.2,67.9,832.2-4,790.7-72.6z"/>
<path class="st1" d="M1052.6,312.2c-4.7-5.9-6.6-7.3-11.3-13.3c-37.8-48.9-73.4-99.5-106.7-151.8c-22.6-35.5-44.1-71.7-64.5-108.5
	c-9.7-17.5-19.1-35.2-28.3-53C834.7-28.2,827.8-42.1,821-56c-1.9-4-3.8-8-5.7-12c-4.4-9.4-8.8-18.9-13.4-28.2
	c-5.3-10.6-11.8-21.7-21.6-28.9c-4.4-3.4-9.8-5.4-15.3-5.9c-7.9-0.5-15.3,2.8-22.2,6.4c-50.4,26.3-97.7,59.3-140.4,96.8
	c-42.8,37.6-81.1,80.1-114,126.6c-1,1.4-3.4,0.1-2.4-1.4c4-5.7,8.1-11.3,12.3-16.8c51.8-68.9,115.3-128.1,187.6-175
	c12.2-7.9,24.6-15.4,37.2-22.5c6.4-3.6,12.8-7.2,19.3-10.5c6.4-3.3,13.1-6.2,20.4-6.3c24.8-0.4,37.6,27.7,46.4,46.5
	c2.8,5.9,5.6,11.9,8.4,17.8c10.7,22.4,21.8,44.6,33.4,66.6c7.1,13.6,14.4,27.1,21.8,40.5c23.1,41.8,47.7,82.8,73.8,122.9
	c34.5,53.1,68.7,100.1,108,149.8C1055.7,311.6,1053.7,313.6,1052.6,312.2z"/>
<path class="st1" d="M600-41.8c-1.4-1.6-2.9-3.2-4.3-4.8c-11.4-12.6-23.7-25.1-39.4-32.4c-7.5-3.6-15.6-5.5-23.9-5.5
	c-8.6,0-16.9,2.3-24.8,5.4c-3.7,1.5-7.4,3.2-11,5c-4.1,2.1-8.2,4.3-12.2,6.5c-7.6,4.2-15,8.5-22.4,13.1c-14.6,9-28.8,18.8-42.5,29.2
	c-7.1,5.4-14.1,11-20.9,16.8C392.2-3.1,386,2.3,379.9,8c-1.3,1.2-3.2-0.7-1.9-1.9c1.6-1.5,3.2-3,4.8-4.4c4.6-4.1,9.2-8.2,14-12.2
	c8.6-7.3,17.5-14.3,26.5-21C437.4-42,452-51.8,467.1-60.8c7.5-4.5,15.2-8.8,22.9-13c2.3-1.2,4.7-2.5,7.1-3.6
	c5.4-2.7,11.1-5,16.9-6.9c8.2-2.7,16.9-3.5,25.5-2.5c8.3,1.2,16.3,4,23.5,8.1c15.4,8.6,27.3,21.9,39,34.9
	C603.1-42.4,601.2-40.4,600-41.8z"/>
<path class="st1" d="M915.5,89.1l36.9-13.5l18.3-6.7c6-2.2,11.9-4.7,18.1-6.2c5.4-1.5,11.1-1.5,16.4,0.2c4.7,1.8,9.1,4.4,12.8,7.9
	c3.8,3.5,7.3,7.2,10.5,11.2c4,4.8,7.9,9.6,11.9,14.5c16.3,19.9,32.5,39.9,48.6,60c16.1,20.1,32.1,40.3,47.9,60.6
	c15.9,20.3,31.7,40.7,47.4,61.2c1.9,2.5,3.8,5,5.8,7.5c1.1,1.4,3.4,0,2.4-1.4c-15.8-20.7-31.7-41.3-47.7-61.8
	c-16.1-20.6-32.2-41.1-48.5-61.5c-16.3-20.4-32.7-40.7-49.2-60.9c-4.1-5-8.2-10.1-12.4-15.1c-3.5-4.2-6.9-8.5-10.7-12.5
	c-7-7.2-15.8-13.6-26.2-13.8c-6.2-0.1-12.1,1.9-17.8,3.9c-6.2,2.2-12.3,4.5-18.5,6.8l-37.2,13.6l-9.3,3.4
	C913.2,87.1,913.9,89.7,915.5,89.1L915.5,89.1z"/>
<path class="st0" d="M551.4-63c-18.8-9.6-42.8-7.8-60,4.3c32.9,5.7,65.4,13.3,97.4,22.7C575.5-43.8,565.1-56,551.4-63z"/>
<path class="st0" d="M491.3-58.8l-3.6,2.9c1.2-1,2.5-2,3.8-2.9C491.4-58.8,491.3-58.8,491.3-58.8z"/>
<path class="st0" d="M1016.6,89.3c-3.6-4.4-7.6-9.1-13-10.8l-5.1,0.2c38.6,68.2,90.8,127.9,153.3,175.2
	C1106.7,199,1061.7,144.1,1016.6,89.3z"/>
<path class="st0" d="M701.1,52.8c2.3,8.5,7.6,16,14.9,21c2.8,1.9,6.2,3.8,7.1,7c0.5,2.1,0.2,4.3-0.9,6.1c-1.1,1.8-2.4,3.5-3.9,5
	l-0.1,0.5c-7-4.1-13.7-9.4-17.5-16.6S696.4,59.4,701.1,52.8"/>
<path class="st0" d="M934.1,255.8c2.3,8.5,7.6,16,14.9,21c2.8,1.9,6.2,3.8,7.1,7c0.5,2.1,0.2,4.3-0.9,6.1c-1.1,1.8-2.4,3.5-3.9,5
	l-0.1,0.5c-7-4.1-13.7-9.4-17.5-16.6S929.4,262.4,934.1,255.8"/>
<path class="st0" d="M469.1,241.8c2.3,8.5,7.6,16,14.9,21c2.8,1.9,6.2,3.8,7.1,7c0.5,2.1,0.2,4.3-0.9,6.1c-1.1,1.8-2.4,3.5-3.9,5
	l-0.1,0.5c-7-4.1-13.7-9.4-17.5-16.6S464.4,248.4,469.1,241.8"/>
<circle class="st2" cx="1004.2" cy="-182.1" r="51"/>
<path class="st3" d="M1096.3-221.3c-24.7-3.3-52.9,10-59.3,34.1c-4.2-11.2-16.7-16.8-27.8-12.6c-6.5,2.5-11.5,7.9-13.3,14.7l2.8,2
	c53,11.5,107.8,11.2,160.7-0.7C1142.1-201.8,1121-217.9,1096.3-221.3z"/>
<path class="st3" d="M990.3-153.3c-24.7-3.3-52.9,10-59.3,34.1c-4.2-11.2-16.7-16.8-27.8-12.6c-6.5,2.5-11.5,7.9-13.3,14.7l2.8,2
	c53,11.5,107.8,11.2,160.7-0.7C1036.1-133.8,1015-149.9,990.3-153.3z"/>
<path class="st4" d="M1206-140.4c-0.1,0-0.2,0-0.3,0c-264.4-83.6-497.4-72.7-646.4-48.8c-20.3,3.3-40.6,7-60.4,11.2
	c-5.1,1.1-10.3,2.2-15.6,3.4c-6.3,1.4-12.6,2.9-18.5,4.3c-2.6,0.6-5.1,1.2-7.6,1.8c-3.8,0.9-7.6,1.9-11.7,3
	c-4.6,1.2-9.2,2.4-13.8,3.7c0,0,0,0-0.1,0l0,0c-5.2,1.4-10.3,2.9-15.3,4.3c-2.7,0.8-5.3,1.5-7.8,2.3c-0.3,0.1-0.5,0.2-0.8,0.2
	l-0.5,0.2c-0.3,0.1-0.6,0.2-0.9,0.3l0,0l0,0l-0.8,0.3c-1,0.3-1.9,0.6-2.8,0.9c-24.5,7.6-38,12.9-38.2,13c-0.5,0.2-1.1,0-1.3-0.6
	s0-1.1,0.6-1.3c0.1-0.1,13.7-5.5,38.3-13.1c0.9-0.3,1.9-0.6,2.8-0.9l0.8-0.2c0,0,0.1,0,0.1,0c0.3-0.1,0.6-0.2,0.9-0.3l0.5-0.2
	c0.3-0.1,0.5-0.2,0.8-0.2c2.5-0.8,5.1-1.5,7.8-2.3c5-1.5,10.1-2.9,15.3-4.3c0,0,0,0,0,0v0c4.6-1.3,9.3-2.5,13.8-3.7
	c4.1-1.1,7.9-2,11.7-3c2.5-0.6,5-1.2,7.6-1.9c6-1.5,12.2-2.9,18.6-4.3c5.3-1.2,10.6-2.3,15.6-3.4c19.8-4.2,40.2-7.9,60.5-11.2
	c149.1-23.9,382.5-34.9,647.3,48.9c0.5,0.2,0.8,0.7,0.7,1.3C1206.8-140.7,1206.4-140.4,1206-140.4z"/>
<path class="st5" d="M618,186.7c-0.3-1-0.9-1.9-1.7-2.7c-0.3-0.3-0.6-0.5-0.9-0.7c-2.6-1.7-6.5-2.1-9,0c-0.2,0.2-0.5,0.5-0.7,0.7
	c-0.7,0.9-1.5,1.8-2.3,2.7c-1.3,1.5-2.6,2.9-4,4.2c-0.4,0.4-0.8,0.8-1.2,1.2c-0.2,0.2-0.5,0.5-0.7,0.7c-0.9,0.8-1.8,1.7-2.7,2.5
	c-0.5,0.4-1,0.8-1.5,1.3c-0.7,0.6-1.5,1.2-2.2,1.8c-0.1,0-0.1,0.1-0.2,0.2c0,0,0,0,0,0c0,0,0,0,0,0c0,0-0.1,0-0.1,0
	c-0.2,0.2-0.4,0.3-0.5,0.3c0,0,0.1,0,0.1-0.1c-0.2,0.1-0.4,0.3-0.5,0.4c-1.8,1.3-3.5,2.5-5.4,3.7c-4.5,2.9-9.3,5.4-14.2,7.5
	c-0.3,0.1-0.7,0.3-1,0.4c-12.9,5.3-26.9,7.4-40.9,6c-1.4-0.1-2.8-0.3-4.3-0.5c-1.6-0.2-3.3-0.5-4.9-0.9c-6.2-1.2-12.2-3.1-18-5.4
	c-7.3-3.3-14.2-7.4-20.7-12.1c-1-0.7-2-1.4-3-2.1c1.1-2.8,2.3-5.6,3.4-8.5c0.5-1.4,1.1-2.7,1.6-4.1c4.1-10.6,7.9-21.4,11.6-32.1
	c3.7-10.9,7.2-21.9,10.5-32.9c0.3-1.1,0.7-2.2,1-3.4c1.7-5.8,3.4-11.7,5-17.5c0.1-0.6,0.3-1.1,0.5-1.7c0.5-1.7,0.9-3.4,1.3-5
	c1-3.8-1.3-8.3-5.2-9.2c-4-1-8.1,1.3-9.2,5.2c-0.4,1.6-0.9,3.2-1.3,4.9c-2.1,7.8-4.3,15.6-6.7,23.4c-0.3,1.1-0.7,2.2-1,3.4
	c-5.1,16.9-10.8,33.7-16.9,50.3c-0.7,2-1.5,4-2.3,6c-0.4,1-0.7,2-1.1,2.9c-0.7,1.9-1.5,3.9-2.2,5.8c-0.4,1.1-0.9,2.3-1.3,3.4
	c-0.3,0.7-0.6,1.4-0.9,2.1c-2.9-1-5.8-1.7-8.8-2.1l-0.5-0.1c-2.3-0.3-4.7-0.3-7,0.1c-7,0.8-13.4,4.7-17.2,10.7
	c-4.8,7.5-4.7,18.3,2,24.6c6.9,6.6,17.3,6.5,25.4,2.4c4.3-2.3,7.9-5.7,10.5-9.9c1-1.5,1.9-3.1,2.7-4.7c0.2,0.1,0.4,0.3,0.6,0.4
	c0.8,0.6,1.6,1.1,2.4,1.7c4.6,3.3,9.5,6.3,14.5,8.9c10.9,5.4,22.6,8.9,34.6,10.5c0.3,0,0.5,0.1,0.8,0.1c1.3,0.2,2.7,0.3,4,0.4
	c19.2,1.4,38.5-2.5,55.6-11.4c1.4-0.8,2.9-1.5,4.3-2.4c2.2-1.3,4.4-2.6,6.5-4.1c1.1-0.8,2.3-1.6,3.4-2.4c4.9-3.6,9.4-7.6,13.5-12
	c1.6-1.6,3.1-3.4,4.5-5.1c1.4-1.4,2.1-3.3,2.2-5.3C618.5,188.4,618.3,187.5,618,186.7z M452.4,210.5c0.2-0.2,0.4-0.3,0.6-0.5
	C453,210.2,452.7,210.4,452.4,210.5L452.4,210.5z M455.6,207.3c-0.2,0.3-0.4,0.5-0.7,0.8c-0.7,0.8-1.5,1.5-2.3,2.2
	c-0.1,0.1-0.2,0.2-0.4,0.3c0,0,0,0,0,0c0,0,0,0,0,0c-0.1,0.1-0.3,0.1-0.4,0.2c-0.4,0.3-0.9,0.5-1.3,0.7c-0.9,0.3-1.8,0.6-2.7,0.8
	c-0.7,0.1-1.4,0.1-2.1,0h0c-0.5-0.1-1-0.2-1.5-0.4c-0.2-0.1-0.5-0.3-0.7-0.4c-0.1-0.1-0.2-0.2-0.2-0.2c-0.1-0.1-0.2-0.2-0.3-0.3
	c0,0,0,0,0,0c0,0,0,0,0,0c-0.1-0.2-0.2-0.4-0.3-0.6c0,0,0,0,0,0c-0.1-0.3-0.1-0.5-0.2-0.8c0-0.5,0-0.9,0-1.4
	c0.1-0.6,0.3-1.3,0.5-1.9c0.2-0.4,0.4-0.9,0.7-1.3c0,0,0.1-0.2,0.2-0.4c0,0,0,0,0,0c0.1-0.2,0.3-0.3,0.5-0.5
	c0.3-0.3,0.6-0.6,0.9-0.8c0.6-0.4,1.1-0.7,1.8-1c1-0.3,1.9-0.6,2.9-0.8c1.5-0.1,2.9-0.1,4.4,0c1.4,0.2,2.8,0.6,4.1,1
	c-0.8,1.6-1.7,3.1-2.8,4.5C455.7,207.2,455.6,207.2,455.6,207.3z M444.5,204c-0.1,0.1-0.2,0.3-0.3,0.4
	C444.3,204.2,444.4,204.1,444.5,204L444.5,204z"/>
<path class="st5" d="M587.9,84.6c-0.1,3.1-0.2,6.3-0.3,9.4c-0.2,7-0.4,13.9-0.6,20.9c-0.2,7.8-0.4,15.7-0.7,23.5
	c-0.1,4.1-0.2,8.1-0.3,12.2c-0.3,10.9-0.6,21.8-0.9,32.7c0,1.1-0.1,2.3-0.1,3.4c-0.1,5.4-0.3,10.8-0.5,16.2
	c-0.2,5.9-0.3,11.7-0.5,17.6c-0.1,4.4-0.2,8.8-0.4,13.2c-0.9,31.9-1.8,63.9-2.7,95.8c-0.1,4.1-3.4,7.4-7.5,7.5
	c-4.1,0-7.5-3.4-7.5-7.5c0.5-18,1-35.9,1.5-53.9c0.5-16.2,0.9-32.5,1.4-48.7c0.2-5.4,0.3-10.7,0.5-16.1c0.2-8.1,0.5-16.1,0.7-24.2
	c0-1.1,0.1-2.3,0.1-3.4c0-1,0-2,0.1-3c0.4-15.7,0.9-31.3,1.3-47c0.2-6.2,0.4-12.3,0.5-18.5c0.2-7,0.4-14.1,0.6-21.1
	c0.1-3.1,0.2-6.2,0.3-9.3c0.1-4.1,3.4-7.4,7.5-7.5C584.6,77.1,587.9,80.4,587.9,84.6z"/>
<path class="st5" d="M999.4,86.6c-7.9,29.8-17.3,59.1-28.2,87.9c-3,7.9-6.1,15.9-9.4,23.7l0.8-1.8c-1.5,3.7-3.3,7.3-5.6,10.6
	c-0.2,0.2-0.3,0.4-0.5,0.6c0.8-1,0.9-1.2,0.4-0.6c-0.3,0.3-0.5,0.6-0.8,0.9c-0.7,0.8-1.5,1.5-2.2,2.2c-0.2,0.2-0.4,0.3-0.6,0.5
	l0.9-0.7c-0.1,0.3-0.9,0.6-1.1,0.7c-0.8,0.5-1.6,0.9-2.4,1.2l1.8-0.8c-1.4,0.5-2.8,0.9-4.2,1.2l2-0.3c-1.4,0.2-2.9,0.2-4.3,0l2,0.3
	c-1.2-0.2-2.3-0.5-3.4-0.9l1.8,0.8c-0.6-0.3-1.1-0.6-1.7-0.9c-0.3-0.2-1.1-0.8,0,0c1.1,0.9,0.1,0.1-0.1-0.2
	c-0.2-0.2-0.4-0.4-0.6-0.6c-0.9-0.9,1,1.6,0.4,0.5c-0.3-0.5-0.6-1.1-0.9-1.6l0.8,1.8c-0.3-0.9-0.6-1.7-0.7-2.7l0.3,2
	c-0.1-1.1-0.1-2.3,0-3.4l-0.3,2c0.2-1.3,0.5-2.5,1-3.7l-0.8,1.8c0.3-0.8,0.7-1.6,1.2-2.3c0.2-0.4,0.5-0.7,0.7-1.1
	c0,0-1.3,1.5-0.6,0.8c0.2-0.2,0.4-0.4,0.5-0.6c0.3-0.3,0.6-0.6,0.9-0.9c1-1-1.5,1-0.3,0.2c0.9-0.6,1.8-1.1,2.7-1.5l-1.8,0.8
	c1.6-0.7,3.3-1.1,5-1.3l-2,0.3c2.1-0.2,4.3-0.2,6.5,0.1l-2-0.3c2.7,0.4,5.4,1.2,7.9,2.2l-1.8-0.8c5.4,2.3,10.2,5.7,14.9,9.1
	c4.6,3.3,9.5,6.3,14.5,8.9c10.9,5.4,22.6,8.9,34.6,10.5c35.1,4.3,70-9.5,92.6-36.8c1.4-1.4,2.1-3.3,2.2-5.3c0-2-0.8-3.9-2.2-5.3
	c-2.8-2.5-7.9-3.2-10.6,0c-2.5,3.1-5.2,6-8.1,8.7c-1.3,1.3-2.7,2.5-4.1,3.7c-0.8,0.7-1.6,1.4-2.5,2c-0.4,0.3-1.6,1.1,0.3-0.2
	c-0.4,0.3-0.8,0.6-1.3,1c-6.3,4.6-13.1,8.5-20.3,11.6l1.8-0.8c-7.7,3.2-15.9,5.5-24.2,6.6l2-0.3c-8.5,1.1-17.2,1.1-25.8,0l2,0.3
	c-8.5-1.2-16.9-3.4-24.9-6.8l1.8,0.8c-7.7-3.4-15-7.6-21.7-12.6c-3.5-2.6-7.2-4.9-11.1-7c-4.5-2.3-9.4-3.8-14.4-4.4
	c-9.4-1.1-19.1,2.6-24.2,10.7c-4.8,7.5-4.7,18.2,2,24.6c6.9,6.6,17.3,6.5,25.4,2.4c7.8-4,12.5-12.2,15.8-19.9
	c7.4-17.5,14-35.3,20.1-53.3c6.1-17.8,11.6-35.7,16.5-53.8c0.6-2.2,1.2-4.5,1.8-6.7c1-3.8-1.3-8.3-5.2-9.2
	C1004.6,80.4,1000.5,82.7,999.4,86.6L999.4,86.6z"/>
<path class="st5" d="M1074.2,84.6l-2.7,95.8l-2.7,95.3l-1.5,53.9c0,4.1,3.4,7.5,7.5,7.5c4.1-0.1,7.4-3.4,7.5-7.5l2.7-95.8l2.7-95.3
	l1.5-53.9c0-4.1-3.4-7.5-7.5-7.5C1077.6,77.1,1074.3,80.5,1074.2,84.6z"/>
<path class="st6" d="M814.6,302.8h2.3v-106h54.3v-2.3h-54.3v-44.7h42c-0.6-0.8-1.2-1.6-1.9-2.3h-40.1v-29.6
	c-0.8-0.3-1.5-0.6-2.3-0.9v30.5h-45.7v-37.9c-0.8,0-1.6,0.1-2.3,0.2v37.7h-36.4v-28.3c-0.8,0.3-1.6,0.7-2.3,1.1v27.2h-30.6v2.3h30.6
	v44.7h-30.6v2.3h30.6v106h2.3v-106c20.1,0,36.4,16.3,36.4,36.4c0,0,0,0,0,0v69.6h2.3v-106h45.7V302.8z M730.2,194.4v-44.7h36.4v44.7
	H730.2z M768.9,194.4v-44.7h0.9c24.7,0,44.7,20,44.7,44.7c0,0,0,0,0,0H768.9z"/>
<path class="st7" d="M800.4,271c-2.9,13.1-10,24.9-20,33.7c-0.7,0.6-1.5,1.3-2.3,1.9c-1.9,0.2-3.7,0.3-5.6,0.5
	c-1.5,0.1-3,0.3-4.5,0.4l-0.3,0l-0.2-1.6l-0.8-6.6c-6-9.8-7.2-21.7-3.3-32.4c2.6-7.1,7.4-13.4,12.1-19.7c6.5-8.6,12.8-17.1,13-27.7
	c3.2,4.1,5.8,8.6,7.9,13.3c-1.9,0.9-3.7,2.2-5.1,3.8c-0.4,0.5-0.8,1.1-0.5,1.6c0.2,0.5,0.8,0.6,1.4,0.6c1.3,0.1,2.5,0.3,3.8,0.4
	c1,0.1,2,0.2,3,0.3c1.2,4,2,8.1,2.5,12.2C802.1,258.2,801.7,264.7,800.4,271z"/>
<path class="st5" d="M833.6,244.8c-5.9,4.3-9.3,10.5-12,17.3c-2.7,0.9-5.2,2.5-7.2,4.6c-0.4,0.5-0.8,1.1-0.5,1.6
	c0.2,0.5,0.8,0.6,1.4,0.6c1.3,0.1,2.5,0.3,3.8,0.4c-2.7,8-5.1,16.4-9.9,23.2c-3.2,4.5-7.3,8.2-12,10.9c-1.3,0.7-2.6,1.4-4,2
	c-5.1,0.4-10.1,0.8-15,1.3c-1.9,0.2-3.7,0.3-5.6,0.5c-1.5,0.1-3,0.3-4.5,0.4c0-0.5,0-1.1,0-1.7c0.3-14.7,5.7-28.7,15.3-39.9
	c0.5-0.5,0.9-1,1.4-1.5c4.8-5.2,10.5-9.5,16.8-12.7C811.3,246.6,822.4,244.2,833.6,244.8z"/>
<path class="st5" d="M774.2,302l-1.2,3.4l-0.6,1.7c-1.5,0.1-3,0.3-4.5,0.4l-0.3,0c-1.7,0.2-3.3,0.3-5,0.5c-0.4-0.5-0.9-1-1.3-1.5
	c-21.7-26.3-18.1-65.2,8.1-87.1c-1.3,6.9,0.2,13.5,2.8,20.1c-0.3,0.1-0.5,0.2-0.8,0.3c-1.9,0.9-3.7,2.2-5.1,3.8
	c-0.4,0.5-0.8,1.1-0.5,1.6c0.2,0.5,0.8,0.6,1.4,0.6c1.3,0.1,2.5,0.3,3.8,0.4c1,0.1,2,0.2,3,0.3c0.5,0,0.9,0.1,1.4,0.2
	c0.1,0.2,0.1,0.3,0.2,0.4c2.8,6.2,5.9,12.4,7.7,18.8c0.4,1.6,0.8,3.3,1,4.9C785.8,282.2,782.1,293.7,774.2,302z"/>
<path class="st7" d="M874.9,156.9c-8.6-16.8-21.9-30.9-37.6-41.3c-15.7-10.4-33.8-16.7-52.6-18.4c-2.5-0.2-4.9-0.4-7.4-0.4
	c-2.9,0-46.9,12.6-61.6,23c-14.7,10.2-26.8,23.8-35.3,39.5c-8.5,15.8-12.7,33.7-12.1,51.6c0.7,18.1,5.8,35.7,14.7,51.5
	c8.8,15.7,21.3,29,36.4,38.7c15.3,9.8,30.7,35.7,48.9,36.7c18.2,0.9,39.1-23.6,55.7-31c16.6-7.5,31-19.2,41.7-34
	c10.4-14.5,17.1-31.3,19.6-48.9c2.6-18.1,1.4-36.7-4.8-54C878.9,165.5,877,161.1,874.9,156.9c-1.8-3.5-7-4.8-10.3-2.7
	c-3.5,2.2-4.7,6.7-2.7,10.3c1,2.1,2,4.2,2.9,6.3l-0.8-1.8c3.4,8.2,5.7,16.8,6.9,25.5l-0.3-2c1.2,9.5,1.2,19.2-0.1,28.7l0.3-2
	c-1.3,9.5-3.8,18.8-7.6,27.7l0.8-1.8c-1.9,4.5-4.1,8.9-6.7,13.1c-1.3,2.1-2.6,4.2-4.1,6.2c-0.6,0.9-1.3,1.8-1.9,2.6
	c-0.9,1.1,1.2-1.5,0.3-0.4c-0.2,0.2-0.3,0.4-0.5,0.6c-0.5,0.6-0.9,1.1-1.4,1.7c-3.1,3.7-6.5,7.2-10.2,10.4c-0.9,0.8-1.8,1.6-2.8,2.3
	c-0.5,0.4-0.9,0.8-1.4,1.1c0,0,1.6-1.2,0.7-0.5c-0.3,0.2-0.6,0.4-0.9,0.7c-1.9,1.4-3.9,2.8-6,4.1c-4.7,3-9.6,5.5-14.8,7.7l1.8-0.8
	c-8.8,3.7-18.1,6.3-27.6,7.6l2-0.3c-9.5,1.3-19.1,1.3-28.6,0.1l2,0.3c-8.6-1.2-17.1-3.4-25.1-6.8l1.8,0.8c-4.7-2-9.1-4.3-13.4-7
	c-2.1-1.3-4.2-2.7-6.2-4.2c-0.3-0.2-0.6-0.4-0.9-0.6c-0.9-0.7,0.7,0.5,0.7,0.5c-0.5-0.4-1-0.8-1.5-1.2c-1-0.8-1.9-1.6-2.9-2.4
	c-3.8-3.3-7.3-6.9-10.5-10.7c-0.8-1-1.6-1.9-2.4-2.9c-0.3-0.4-0.9-1.3,0.4,0.5c-0.2-0.2-0.4-0.5-0.5-0.7c-0.4-0.6-0.9-1.1-1.3-1.7
	c-1.5-2-2.9-4.1-4.2-6.2c-3-4.8-5.6-9.9-7.8-15.1l0.8,1.8c-3.6-8.6-6.1-17.6-7.3-26.8l0.3,2c-1.1-8.5-1.2-17.1,0-25.6l-0.3,2
	c1.1-8.2,3.4-16.3,6.6-24l-0.8,1.8c2-4.8,4.4-9.4,7.2-13.9c1.4-2.2,2.8-4.4,4.4-6.5c0.4-0.5,0.7-1,1.1-1.4c0.3-0.4,1.2-1.5-0.3,0.4
	c0.1-0.2,0.3-0.4,0.4-0.6c0.8-1.1,1.7-2.1,2.6-3.2c3.4-3.9,7-7.6,10.9-11c1-0.9,2-1.7,3-2.5c0.5-0.4,0.9-0.7,1.4-1.1
	c0.2-0.1,0.4-0.3,0.6-0.4c-2,1.6-0.6,0.4-0.1,0.1c2.1-1.6,4.2-3.1,6.4-4.5c4.9-3.1,10-5.8,15.4-8.1l-1.8,0.8
	c7.8-3.3,42.1-10.9,48.4-10.1l-2-0.3c9.2,1.3,18.2,3.8,26.7,7.4l-1.8-0.8c4.3,1.8,8.5,4,12.6,6.3c2,1.2,4,2.4,6,3.8
	c0.9,0.6,1.8,1.3,2.7,1.9c0.5,0.3,0.9,0.7,1.3,1c0.2,0.2,0.5,0.4,0.7,0.6c1,0.8-1.4-1.1-0.3-0.3c3.6,2.9,7.1,6,10.4,9.3
	c1.6,1.6,3.1,3.3,4.6,5c0.8,0.9,1.5,1.8,2.2,2.7c0.4,0.5,1.6,2.1,0.1,0.1c0.4,0.5,0.7,1,1.1,1.5c3.2,4.3,6,8.8,8.4,13.5
	c1.8,3.5,7,4.8,10.3,2.7C875.7,165,876.9,160.5,874.9,156.9z"/>
<path class="st7" d="M787.5,279.3c-2.1,0.1-3.9-1.5-3.9-3.6c-0.1-1.1,0.4-2.2,1.2-2.9c0.1-0.4,0.2-0.7,0.3-1c0-0.1-0.1-0.2-0.1-0.2
	c-3.5-8.3-25.7,14.8-26.6,22.6c-0.4,3.4-0.2,6.9,0.5,10.3c-7.2-15.7-10.9-32.7-11-50c0-4.3,0.2-8.7,0.7-13c0.4-3.5,1-7,1.7-10.5
	c3.9-18.9,12.1-36.6,24.2-51.6c6.9,0.4,12.9-0.7,13.5-14c0.1-2.4,1.9-4.4,2.2-6.8c-0.7,0.1-1.3,0.1-2,0.2c-0.2,0-0.4,0-0.6,0l-0.1,0
	c-2.1,0.1-3.8-1.5-3.9-3.6c0-0.9,0.3-1.8,0.8-2.5c0.3-0.3,0.6-0.7,0.9-1c0.4-0.5,0.9-1.1,1.3-1.6c0-0.1,0.1-0.1,0.1-0.2
	c0.5-0.6,1-1.2,1.5-1.8c-0.9-1.4-2.1-2.6-3.6-3.4c-5-2.9-11.8-0.9-15.4,3.6c-3.6,4.5-4.3,10.8-3,16.4c1.2,4.8,3.3,9.3,6,13.4
	c-0.3,0.3-0.5,0.7-0.8,1c-4.9,6.3-9.2,13.1-12.8,20.3c1-7.9-11.4-36.6-16.2-42.7c-5.8-7.3-17.6-4.1-18.6,5.1c0,0.1,0,0.2,0,0.3
	c0.7,0.4,1.4,0.8,2.1,1.3c2.4,1.6,3,4.8,1.4,7.1c-0.8,1.2-2.1,2-3.5,2.2l-0.1,0c-9.6,13.6,21.1,49.2,28.7,41.2
	c-3.6,10.2-5.9,20.9-6.7,31.7c-0.5,6.4-0.5,12.8,0.1,19.2l0-0.2c-1.7-13.9-30.9-34.5-39.5-32.8c-4.9,1-9.8,0.8-9,5.7
	c0,0.1,0,0.2,0,0.2c1.3,0.5,2.6,1.2,3.9,1.9c0.7,0.4,1.4,0.8,2.1,1.3c2.4,1.6,3,4.8,1.4,7.1c-0.8,1.2-2.1,2-3.5,2.2l-0.1,0
	c-0.1,0-0.1,0-0.2,0c-4.3,15,27.9,39.1,47.5,31.4h0c1.9,8.4,4.8,16.7,8.4,24.5h30c0.1-0.3,0.2-0.7,0.3-1c-2.8,0.2-5.6,0-8.3-0.5
	c2.2-2.7,4.5-5.5,6.7-8.2c0-0.1,0.1-0.1,0.1-0.2c1.1-1.4,2.3-2.8,3.4-4.2l0,0C789,287.7,788.5,283.5,787.5,279.3L787.5,279.3z
	 M753.1,211.7L753.1,211.7L753.1,211.7L753.1,211.7z M746.5,271.6l-0.3-0.6c0-0.4,0-0.8,0-1.3c0-0.1,0-0.2,0-0.4
	C746.3,270.2,746.4,270.9,746.5,271.6L746.5,271.6z"/>
<circle class="st7" cx="450.2" cy="205.9" r="11"/>
<circle class="st7" cx="582.2" cy="325.9" r="11"/>
<circle class="st7" cx="1083.2" cy="325.9" r="11"/>
<circle class="st7" cx="1110.2" cy="185.9" r="11"/>
<circle class="st7" cx="1078.2" cy="83.9" r="11"/>
<path class="st7" d="M619.2,185.9c0,6-4.9,10.9-11,10.9c-6,0-10.9-4.9-10.9-11c0-6,4.9-10.9,11-10.9c5.2,0,9.7,3.7,10.7,8.8
	C619.2,184.4,619.3,185.1,619.2,185.9z"/>
<circle class="st7" cx="839.2" cy="115.9" r="11"/>
<path class="st7" d="M730.2,115.9c0,6-4.9,10.9-11,10.9c-6,0-10.9-4.9-10.9-11c0-6,4.9-10.9,11-10.9c5.2,0,9.7,3.7,10.7,8.8
	C730.2,114.4,730.3,115.1,730.2,115.9z"/>
<path class="st7" d="M588.2,83.9c0,6-4.9,10.9-11,10.9c-6,0-10.9-4.9-10.9-11c0-6,4.9-10.9,11-10.9c5.2,0,9.7,3.7,10.7,8.8
	C588.2,82.4,588.3,83.1,588.2,83.9z"/>
<circle class="st7" cx="954.2" cy="209.9" r="11"/>
<circle class="st7" cx="781.2" cy="104.9" r="16"/>
<path class="st8" d="M1213.9,337.7L356.2,338c-0.7,0-1.2-0.5-1.2-1.2c0-0.7,0.5-1.2,1.2-1.2c0,0,0,0,0,0l857.8-0.3
	c0.7,0,1.2,0.5,1.2,1.2C1215.1,337.2,1214.6,337.7,1213.9,337.7z"/>
</svg>
